<svg version="1.1" id="Layer_1" xmlns="http://www.w3.org/2000/svg" xmlns:xlink="http://www.w3.org/1999/xlink" x="0px" y="0px"
	 width="100%" viewBox="0 0 158 155" enable-background="new 0 0 158 155" xml:space="preserve">
<path fill="#EEEDEC" opacity="1.000000" stroke="none" 
	d="
M104.000000,156.000000 
	C69.333336,156.000000 35.166676,156.000000 1.000009,156.000000 
	C1.000006,104.333344 1.000006,52.666687 1.000003,1.000023 
	C53.666653,1.000015 106.333305,1.000015 158.999969,1.000008 
	C158.999969,52.666645 158.999969,104.333290 158.999985,155.999969 
	C140.833328,156.000000 122.666664,156.000000 104.000000,156.000000 
M78.015495,50.148430 
	C76.016869,39.899521 68.392220,34.431950 60.943295,28.815031 
	C60.419048,29.217516 59.894802,29.620001 59.370556,30.022488 
	C64.286156,36.668598 69.201752,43.314705 73.781563,50.661007 
	C70.632690,49.905258 67.483818,49.149506 63.248024,48.132885 
	C68.109177,54.617306 73.181572,59.340981 78.997993,62.230724 
	C65.088814,62.230724 51.179642,62.230724 37.259651,62.230724 
	C37.259651,92.226746 37.259651,121.272980 37.259651,150.488892 
	C66.596169,150.488892 95.614899,150.488892 124.797470,150.488892 
	C124.797470,121.093407 124.797470,92.044968 124.797470,62.872223 
	C119.130463,62.475418 113.715782,62.096283 108.245399,60.918720 
	C107.785461,58.719891 107.325516,56.521065 106.865570,54.322239 
	C106.495941,54.282543 106.126305,54.242851 105.756676,54.203156 
	C104.987480,56.651768 104.218292,59.100380 102.698677,62.008778 
	C100.416626,62.152031 98.121048,62.185219 95.855644,62.463837 
	C92.284836,62.903000 91.650658,61.004978 92.868134,58.023266 
	C101.877068,56.387985 104.963737,49.906322 106.497360,41.154427 
	C103.772316,42.636608 101.457664,43.578022 99.512047,45.018024 
	C95.067467,48.307568 92.804558,53.269016 90.047623,58.657391 
	C88.859398,61.096409 87.892509,63.927776 84.285286,61.203449 
	C86.306946,56.355064 86.910828,51.668251 83.488495,47.440273 
	C82.970764,47.475697 82.453026,47.511120 81.935295,47.546543 
	C82.152840,51.900291 82.370377,56.254036 82.071159,60.903362 
	C81.694893,60.989773 81.318634,61.076183 80.735344,60.439938 
	C77.982773,57.792732 78.723709,54.158031 78.015495,50.148430 
M82.505302,28.508867 
	C82.789536,36.098427 84.436249,40.704655 87.866974,43.506691 
	C91.922981,36.798901 89.673996,22.545561 83.561760,17.134655 
	C83.223412,20.720362 82.897331,24.176100 82.505302,28.508867 
z"/>
<path fill="#7D7977" opacity="1.000000" stroke="none" 
	d="
M84.212234,61.949383 
	C87.892509,63.927776 88.859398,61.096409 90.450272,58.303978 
	C91.274429,57.995430 91.695946,58.040295 92.117455,58.085159 
	C91.650658,61.004978 92.284836,62.903000 95.855644,62.463837 
	C98.121048,62.185219 100.416626,62.152031 103.353912,62.091949 
	C105.439796,62.022457 106.870453,61.869801 108.301109,61.717144 
	C113.715782,62.096283 119.130463,62.475418 124.797470,62.872223 
	C124.797470,92.044968 124.797470,121.093407 124.797470,150.488892 
	C95.614899,150.488892 66.596169,150.488892 37.259651,150.488892 
	C37.259651,121.272980 37.259651,92.226746 37.259651,62.230724 
	C51.179642,62.230724 65.088814,62.230724 79.647133,62.022106 
	C80.570381,61.659286 80.785744,61.442322 80.942368,61.162598 
	C81.318634,61.076183 81.694893,60.989773 82.553535,61.037395 
	C83.428017,61.430744 83.820129,61.690063 84.212234,61.949383 
M122.820511,115.170944 
	C122.745972,114.439056 122.671432,113.707161 122.763840,112.056564 
	C122.717064,100.378937 122.670296,88.701302 122.779648,76.434464 
	C122.833336,76.034325 122.887024,75.634186 122.904518,74.348991 
	C122.442360,73.026749 121.980202,71.704506 121.939316,69.774490 
	C122.235367,68.328453 122.531418,66.882408 122.911293,65.026917 
	C117.841034,65.026917 113.476845,65.026917 108.188744,64.949547 
	C106.326927,64.992012 104.465118,65.034477 101.733955,65.003342 
	C98.162285,65.066399 94.590607,65.129463 90.156227,65.061279 
	C87.415779,65.380714 84.675339,65.700150 81.085579,66.090981 
	C79.964134,65.901688 78.839455,65.532799 77.721771,65.552872 
	C71.461121,65.665344 65.202164,65.871712 58.096088,66.079109 
	C51.932171,65.574745 45.768257,65.070381 39.575722,64.563675 
	C39.575722,93.110619 39.575722,120.448486 39.575722,147.749451 
	C67.481941,147.749451 94.992973,147.749451 123.058388,147.749451 
	C121.630157,141.904114 123.846191,135.956207 120.235580,130.449188 
	C120.484825,129.006088 120.734070,127.563004 121.315063,125.589844 
	C121.193489,123.120651 121.071915,120.651466 121.586983,117.934761 
	C121.973251,117.259056 122.359520,116.583351 122.820511,115.170944 
z"/>
<path fill="#47546B" opacity="1.000000" stroke="none" 
	d="
M82.538269,28.070353 
	C82.897331,24.176100 83.223412,20.720362 83.561760,17.134655 
	C89.673996,22.545561 91.922981,36.798901 87.866974,43.506691 
	C84.436249,40.704655 82.789536,36.098427 82.538269,28.070353 
z"/>
<path fill="#4B566A" opacity="1.000000" stroke="none" 
	d="
M74.117348,49.960815 
	C69.201752,43.314705 64.286156,36.668598 59.370556,30.022488 
	C59.894802,29.620001 60.419048,29.217516 60.943295,28.815031 
	C68.392220,34.431950 76.016869,39.899521 77.845932,50.727604 
	C76.490028,50.858124 75.303688,50.409470 74.117348,49.960815 
z"/>
<path fill="#4A566B" opacity="1.000000" stroke="none" 
	d="
M92.492798,58.054214 
	C91.695946,58.040295 91.274429,57.995430 90.534683,57.951107 
	C92.804558,53.269016 95.067467,48.307568 99.512047,45.018024 
	C101.457664,43.578022 103.772316,42.636608 106.497360,41.154427 
	C104.963737,49.906322 101.877068,56.387985 92.492798,58.054214 
z"/>
<path fill="#5B6678" opacity="1.000000" stroke="none" 
	d="
M73.949455,50.310913 
	C75.303688,50.409470 76.490028,50.858124 77.861008,51.115608 
	C78.723709,54.158031 77.982773,57.792732 80.838852,60.801270 
	C80.785744,61.442322 80.570381,61.659286 80.171280,61.903786 
	C73.181572,59.340981 68.109177,54.617306 63.248024,48.132885 
	C67.483818,49.149506 70.632690,49.905258 73.949455,50.310913 
z"/>
<path fill="#586372" opacity="1.000000" stroke="none" 
	d="
M84.248764,61.576416 
	C83.820129,61.690063 83.428017,61.430744 82.811920,60.889603 
	C82.370377,56.254036 82.152840,51.900291 81.935295,47.546543 
	C82.453026,47.511120 82.970764,47.475697 83.488495,47.440273 
	C86.910828,51.668251 86.306946,56.355064 84.248764,61.576416 
z"/>
<path fill="#4F5769" opacity="1.000000" stroke="none" 
	d="
M108.273254,61.317932 
	C106.870453,61.869801 105.439796,62.022457 103.729118,61.862053 
	C104.218292,59.100380 104.987480,56.651768 105.756676,54.203156 
	C106.126305,54.242851 106.495941,54.282543 106.865570,54.322239 
	C107.325516,56.521065 107.785461,58.719891 108.273254,61.317932 
z"/>
<path fill="#EBEBEA" opacity="1.000000" stroke="none" 
	d="
M119.837387,131.023468 
	C123.846191,135.956207 121.630157,141.904114 123.058388,147.749451 
	C94.992973,147.749451 67.481941,147.749451 39.575722,147.749451 
	C39.575722,120.448486 39.575722,93.110619 39.575722,64.563675 
	C45.768257,65.070381 51.932171,65.574745 58.856392,66.221130 
	C67.075134,67.302841 74.533569,68.242523 82.035110,69.495209 
	C82.987976,70.544838 83.897720,71.281479 84.975082,72.309845 
	C86.097931,73.410759 87.053169,74.219933 88.011780,75.008835 
	C88.015160,74.988556 87.974533,74.982277 87.928009,75.358337 
	C88.881416,78.534851 89.881348,81.335312 90.582771,84.407272 
	C76.711174,76.625801 76.478592,76.529625 70.484390,77.707283 
	C78.336914,82.435165 86.189438,87.163040 93.999664,92.237259 
	C93.638123,93.693520 93.318878,94.803429 92.664062,95.849884 
	C87.053070,91.693436 81.561081,88.253525 74.546684,89.637901 
	C79.388565,93.029373 84.230453,96.420853 89.047180,100.204117 
	C88.347702,103.032951 87.673378,105.469994 86.647606,107.865028 
	C79.488228,105.385109 72.680298,102.947205 65.872375,100.509293 
	C65.675667,101.010162 65.478958,101.511032 65.282249,102.011902 
	C70.080536,107.203827 76.741234,109.292580 82.865768,112.335495 
	C82.503822,113.009369 82.245483,113.449791 81.541168,113.948486 
	C77.656036,114.006744 74.216888,114.006744 70.186050,114.006744 
	C79.059540,118.655426 87.839630,121.380302 97.874466,120.792854 
	C100.203156,121.561394 102.137871,122.226555 104.412354,122.976257 
	C106.499168,123.714867 108.246216,124.368935 109.997894,125.011421 
	C110.002525,124.999832 109.980011,125.009651 110.128525,125.308617 
	C112.505440,127.118889 114.733833,128.630188 117.183350,130.362396 
	C118.215446,130.730026 119.026413,130.876755 119.837387,131.023468 
M112.897064,139.636581 
	C108.663582,140.886475 104.430099,142.136353 100.196617,143.386246 
	C100.411201,144.198975 100.625786,145.011703 100.840363,145.824432 
	C106.066597,144.760757 111.354210,143.925385 116.494888,142.543442 
	C119.344597,141.777359 120.775833,139.796997 117.751534,136.433975 
	C109.758827,131.727814 101.298088,129.592270 92.180016,131.067078 
	C92.028542,131.668106 91.877075,132.269119 91.725609,132.870148 
	C98.939308,134.902512 106.153008,136.934891 112.897064,139.636581 
z"/>
<path fill="#E7E8EA" opacity="1.000000" stroke="none" 
	d="
M122.623520,77.023674 
	C122.670296,88.701302 122.717064,100.378937 122.370377,112.522186 
	C119.212967,112.622101 119.699768,114.375778 119.997116,116.250252 
	C119.988655,116.489044 120.004448,116.966675 119.667679,116.904739 
	C116.244362,114.574814 113.157814,112.306816 109.736557,110.041092 
	C108.576538,110.371101 107.751244,110.698830 106.749115,110.938965 
	C106.572266,110.851387 106.195923,110.732170 106.114883,110.396149 
	C105.283371,108.546211 104.532898,107.032303 103.764091,105.173676 
	C103.693108,104.604919 103.640450,104.380890 103.710449,103.798996 
	C103.573761,102.345558 103.314407,101.249969 102.884460,99.919334 
	C102.132988,100.142250 101.552116,100.600227 100.699448,100.896286 
	C99.273079,99.522362 98.118507,98.310356 96.978470,96.736153 
	C96.655045,94.913483 96.317085,93.453003 96.037247,91.625793 
	C95.163155,89.498131 94.230942,87.737190 93.583817,85.824814 
	C93.251884,82.730560 92.634865,79.787743 92.012001,76.433601 
	C91.895752,72.392418 94.487663,68.516235 91.018936,65.192520 
	C94.590607,65.129463 98.162285,65.066399 102.196075,65.392067 
	C102.804871,69.183510 102.860916,72.595917 103.221878,75.975746 
	C103.263344,76.363976 105.006226,76.570496 106.149063,77.209503 
	C107.171333,78.180817 108.004784,78.803886 108.696091,79.710754 
	C108.040504,80.663475 107.527061,81.332390 106.750305,82.103577 
	C105.992485,82.477386 105.497971,82.748924 104.993225,82.664413 
	C104.471428,81.536659 103.959877,80.764946 103.448318,79.993233 
	C103.101974,80.179520 102.755630,80.365799 102.409286,80.552086 
	C102.616524,81.714195 102.823761,82.876312 102.783478,84.335236 
	C100.346504,88.810150 99.712044,92.954910 102.948196,97.284790 
	C104.087738,97.103561 105.080750,96.657326 106.381744,96.080688 
	C107.958511,94.865257 109.227295,93.780235 110.553207,92.640396 
	C110.610336,92.585587 110.691132,92.449417 110.933830,92.303604 
	C111.771095,91.432060 112.365654,90.706329 112.982063,89.979630 
	C113.003914,89.978668 112.976875,89.943001 113.387474,90.099731 
	C113.966293,92.708923 113.818207,95.235588 114.372375,97.597488 
	C115.352592,101.775238 116.760078,105.852753 118.134521,110.251816 
	C121.594795,110.676773 119.418571,108.461121 119.560257,106.897926 
	C118.977455,101.577461 118.709625,96.616913 117.908882,91.743927 
	C117.685310,90.383331 115.888321,89.281273 114.816116,87.767715 
	C114.678436,86.970520 114.537773,86.466209 114.595573,85.697586 
	C114.847916,84.554153 114.901787,83.675034 115.129387,82.625275 
	C115.303116,82.454643 115.781265,82.362114 115.894699,82.600311 
	C116.295082,82.449310 116.582031,82.060112 117.037025,81.404495 
	C118.503181,79.769623 119.801300,78.401176 121.353531,77.030327 
	C121.946266,77.026505 122.284897,77.025093 122.623520,77.023674 
z"/>
<path fill="#E5E6E8" opacity="1.000000" stroke="none" 
	d="
M108.838234,79.426956 
	C108.004784,78.803886 107.171333,78.180817 106.345375,76.915115 
	C107.272797,72.523964 108.192726,68.775436 109.112663,65.026917 
	C113.476845,65.026917 117.841034,65.026917 122.911293,65.026917 
	C122.531418,66.882408 122.235367,68.328453 121.373566,70.141479 
	C116.817955,73.481293 112.828094,76.454124 108.838234,79.426956 
z"/>
<path fill="#485469" opacity="1.000000" stroke="none" 
	d="
M108.696091,79.710754 
	C112.828094,76.454124 116.817955,73.481293 121.162933,70.445358 
	C121.980202,71.704506 122.442360,73.026749 122.650482,74.839287 
	C121.964096,75.897293 121.531754,76.465012 121.099411,77.032730 
	C119.801300,78.401176 118.503181,79.769623 116.818512,81.454407 
	C116.138283,81.883408 115.921387,82.080528 115.781265,82.362114 
	C115.781265,82.362114 115.303116,82.454643 114.737206,82.660263 
	C111.779114,82.629768 108.920456,86.255447 107.013611,82.001312 
	C107.527061,81.332390 108.040504,80.663475 108.696091,79.710754 
z"/>
<path fill="#E0E2E6" opacity="1.000000" stroke="none" 
	d="
M90.587585,65.126900 
	C94.487663,68.516235 91.895752,72.392418 91.677246,76.485855 
	C90.223747,76.293724 89.099136,75.638000 87.974533,74.982277 
	C87.974533,74.982277 88.015160,74.988556 87.994110,74.665802 
	C87.040253,73.401436 87.970856,69.922630 84.807472,72.018112 
	C83.897720,71.281479 82.987976,70.544838 82.260551,69.305878 
	C82.273552,67.875565 82.104218,66.947571 81.934891,66.019585 
	C84.675339,65.700150 87.415779,65.380714 90.587585,65.126900 
z"/>
<path fill="#535D71" opacity="1.000000" stroke="none" 
	d="
M110.071274,110.038818 
	C113.157814,112.306816 116.244362,114.574814 119.754990,117.156914 
	C120.436157,117.708099 120.693245,117.945190 120.950340,118.182274 
	C121.071915,120.651466 121.193489,123.120651 120.847549,125.699677 
	C118.993210,124.436432 117.265678,123.268936 116.288124,121.648903 
	C114.023079,117.895195 112.120697,113.922646 110.071274,110.038818 
z"/>
<path fill="#4B576C" opacity="1.000000" stroke="none" 
	d="
M81.510239,66.055283 
	C82.104218,66.947571 82.273552,67.875565 82.217438,68.992874 
	C74.533569,68.242523 67.075134,67.302841 59.279663,66.204590 
	C65.202164,65.871712 71.461121,65.665344 77.721771,65.552872 
	C78.839455,65.532799 79.964134,65.901688 81.510239,66.055283 
z"/>
<path fill="#47556B" opacity="1.000000" stroke="none" 
	d="
M108.650703,64.988235 
	C108.192726,68.775436 107.272797,72.523964 106.156555,76.566872 
	C105.006226,76.570496 103.263344,76.363976 103.221878,75.975746 
	C102.860916,72.595917 102.804871,69.183510 102.630753,65.428864 
	C104.465118,65.034477 106.326927,64.992012 108.650703,64.988235 
z"/>
<path fill="#D9DFE7" opacity="1.000000" stroke="none" 
	d="
M109.736557,110.041092 
	C112.120697,113.922646 114.023079,117.895195 116.288124,121.648903 
	C117.265678,123.268936 118.993210,124.436432 120.681686,125.964706 
	C120.734070,127.563004 120.484825,129.006088 120.036484,130.736328 
	C119.026413,130.876755 118.215446,130.730026 117.424301,130.157608 
	C116.933456,128.450836 116.422768,127.169754 115.891479,125.551239 
	C115.262657,124.792267 114.654442,124.370735 114.025162,123.974915 
	C114.004089,124.000633 114.051460,123.950195 114.215897,123.646835 
	C113.917648,122.885223 113.454964,122.426971 112.997200,121.982475 
	C113.002121,121.996231 113.026680,122.012047 113.013504,121.657974 
	C110.975540,117.878120 108.950752,114.452339 106.925957,111.026550 
	C107.751244,110.698830 108.576538,110.371101 109.736557,110.041092 
z"/>
<path fill="#E2E2E5" opacity="1.000000" stroke="none" 
	d="
M120.005585,116.011459 
	C119.699768,114.375778 119.212967,112.622101 122.286896,112.981544 
	C122.671432,113.707161 122.745972,114.439056 122.441330,115.552834 
	C121.376633,115.960304 120.691109,115.985886 120.005585,116.011459 
z"/>
<path fill="#CAC6C3" opacity="1.000000" stroke="none" 
	d="
M119.997116,116.250252 
	C120.691109,115.985886 121.376633,115.960304 122.403976,115.921188 
	C122.359520,116.583351 121.973251,117.259056 121.268661,118.058517 
	C120.693245,117.945190 120.436157,117.708099 120.091751,117.218842 
	C120.004448,116.966675 119.988655,116.489044 119.997116,116.250252 
z"/>
<path fill="#E2E2E5" opacity="1.000000" stroke="none" 
	d="
M121.353531,77.030319 
	C121.531754,76.465012 121.964096,75.897293 122.668579,75.281815 
	C122.887024,75.634186 122.833336,76.034325 122.701584,76.729065 
	C122.284897,77.025093 121.946266,77.026505 121.353531,77.030319 
z"/>
<path fill="#505D71" opacity="1.000000" stroke="none" 
	d="
M82.969383,112.102051 
	C76.741234,109.292580 70.080536,107.203827 65.282249,102.011902 
	C65.478958,101.511032 65.675667,101.010162 65.872375,100.509293 
	C72.680298,102.947205 79.488228,105.385109 86.923508,108.054314 
	C88.927582,108.926941 90.304298,109.568260 91.880676,110.459808 
	C92.962265,111.537819 93.844193,112.365601 94.726128,113.193382 
	C94.589966,113.511269 94.453812,113.829147 94.317657,114.147034 
	C90.534897,113.465370 86.752144,112.783707 82.969383,112.102051 
z"/>
<path fill="#505C6F" opacity="1.000000" stroke="none" 
	d="
M96.963936,97.098343 
	C98.118507,98.310356 99.273079,99.522362 100.695000,101.293747 
	C99.271378,101.976662 97.507706,102.460991 95.906662,102.138329 
	C93.567314,101.666878 91.344711,100.616142 89.072342,99.812325 
	C84.230453,96.420853 79.388565,93.029373 74.546684,89.637901 
	C81.561081,88.253525 87.053070,91.693436 92.948677,96.069366 
	C94.700562,96.600990 95.832245,96.849670 96.963936,97.098343 
z"/>
<path fill="#525D70" opacity="1.000000" stroke="none" 
	d="
M93.298721,85.976257 
	C94.230942,87.737190 95.163155,89.498131 95.713257,91.625839 
	C94.901413,91.958710 94.471687,91.924812 94.041962,91.890915 
	C86.189438,87.163040 78.336914,82.435165 70.484390,77.707283 
	C76.478592,76.529625 76.711174,76.625801 90.616325,84.380737 
	C90.948387,84.082703 90.901199,84.010857 90.586952,84.253654 
	C90.807076,84.943665 91.341438,85.390877 92.230949,85.878647 
	C92.823647,85.938225 93.061188,85.957245 93.298721,85.976257 
z"/>
<path fill="#475368" opacity="1.000000" stroke="none" 
	d="
M113.366707,138.967270 
	C106.153008,136.934891 98.939308,134.902512 91.725609,132.870148 
	C91.877075,132.269119 92.028542,131.668106 92.180016,131.067078 
	C101.298088,129.592270 109.758827,131.727814 117.633308,137.004333 
	C116.132286,138.038879 114.749496,138.503067 113.366707,138.967270 
z"/>
<path fill="#DADFE5" opacity="1.000000" stroke="none" 
	d="
M82.865768,112.335495 
	C86.752144,112.783707 90.534897,113.465370 94.317657,114.147034 
	C94.453812,113.829147 94.589966,113.511269 94.726128,113.193382 
	C93.844193,112.365601 92.962265,111.537819 92.170898,110.274765 
	C92.539925,109.480583 92.818367,109.121681 93.436798,108.842979 
	C96.778046,111.011940 99.779305,113.100700 103.047302,115.447281 
	C104.863388,116.659233 106.432281,117.583305 107.956856,118.575485 
	C109.667694,119.688896 111.338470,120.863861 113.026680,122.012047 
	C113.026680,122.012047 113.002121,121.996231 112.723495,122.288025 
	C112.608299,123.098907 112.771736,123.618004 112.716644,124.370300 
	C111.658752,124.738884 110.819382,124.874268 109.980011,125.009651 
	C109.980011,125.009651 110.002525,124.999832 109.962868,124.669395 
	C107.981468,123.261658 106.039734,122.184357 103.774529,120.934113 
	C101.633591,120.175934 99.816109,119.590691 97.649902,118.916153 
	C92.196495,117.181305 87.091827,115.535767 81.987152,113.890221 
	C82.245483,113.449791 82.503822,113.009369 82.865768,112.335495 
z"/>
<path fill="#4E596E" opacity="1.000000" stroke="none" 
	d="
M81.541168,113.948486 
	C87.091827,115.535767 92.196495,117.181305 97.630890,119.213379 
	C97.800575,119.963089 97.640533,120.326279 97.480499,120.689468 
	C87.839630,121.380302 79.059540,118.655426 70.186050,114.006744 
	C74.216888,114.006744 77.656036,114.006744 81.541168,113.948486 
z"/>
<path fill="#546074" opacity="1.000000" stroke="none" 
	d="
M113.131882,139.301926 
	C114.749496,138.503067 116.132286,138.038879 117.725906,137.339828 
	C120.775833,139.796997 119.344597,141.777359 116.494888,142.543442 
	C111.354210,143.925385 106.066597,144.760757 100.840363,145.824432 
	C100.625786,145.011703 100.411201,144.198975 100.196617,143.386246 
	C104.430099,142.136353 108.663582,140.886475 113.131882,139.301926 
z"/>
<path fill="#E7E7E9" opacity="1.000000" stroke="none" 
	d="
M93.096817,108.762779 
	C92.818367,109.121681 92.539925,109.480583 91.971245,110.024536 
	C90.304298,109.568260 88.927582,108.926941 87.274963,108.096329 
	C87.673378,105.469994 88.347702,103.032951 89.047180,100.204117 
	C91.344711,100.616142 93.567314,101.666878 95.906662,102.138329 
	C97.507706,102.460991 99.271378,101.976662 100.966797,101.455658 
	C101.552116,100.600227 102.132988,100.142250 102.861465,100.317024 
	C103.078255,102.013466 103.147430,103.077164 102.936493,104.252106 
	C102.513359,104.911194 102.370331,105.459053 102.022247,106.331367 
	C99.288177,105.848549 96.776756,104.978699 94.222656,104.260628 
	C92.963074,103.906494 91.624664,103.832733 90.321915,103.632111 
	C90.205017,104.102310 90.088112,104.572510 89.971214,105.042709 
	C91.013084,106.282738 92.054947,107.522758 93.096817,108.762779 
z"/>
<path fill="#9FA1AD" opacity="1.000000" stroke="none" 
	d="
M93.583817,85.824814 
	C93.061188,85.957245 92.823647,85.938225 92.221298,85.589005 
	C91.538063,84.842827 91.219635,84.426842 90.901199,84.010857 
	C90.901199,84.010857 90.948387,84.082703 90.914833,84.109238 
	C89.881348,81.335312 88.881416,78.534851 87.928009,75.358337 
	C89.099136,75.638000 90.223747,76.293724 91.683105,76.897186 
	C92.634865,79.787743 93.251884,82.730560 93.583817,85.824814 
z"/>
<path fill="#BABEC4" opacity="1.000000" stroke="none" 
	d="
M110.128525,125.308617 
	C110.819382,124.874268 111.658752,124.738884 113.003113,124.367508 
	C113.689217,124.071068 113.870338,124.010628 114.051460,123.950195 
	C114.051460,123.950195 114.004089,124.000633 113.997559,124.298561 
	C114.631378,125.027222 115.271736,125.457947 115.912086,125.888672 
	C116.422768,127.169754 116.933456,128.450836 117.203186,129.936707 
	C114.733833,128.630188 112.505440,127.118889 110.128525,125.308617 
z"/>
<path fill="#E7E7E9" opacity="1.000000" stroke="none" 
	d="
M93.999664,92.237259 
	C94.471687,91.924812 94.901413,91.958710 95.655136,91.992569 
	C96.317085,93.453003 96.655045,94.913483 96.978470,96.736153 
	C95.832245,96.849670 94.700562,96.600990 93.284256,96.132828 
	C93.318878,94.803429 93.638123,93.693520 93.999664,92.237259 
z"/>
<path fill="#CED3D9" opacity="1.000000" stroke="none" 
	d="
M97.874466,120.792854 
	C97.640533,120.326279 97.800575,119.963089 97.979622,119.302673 
	C99.816109,119.590691 101.633591,120.175934 103.748085,121.230354 
	C104.054268,122.096931 104.063423,122.494324 104.072586,122.891716 
	C102.137871,122.226555 100.203156,121.561394 97.874466,120.792854 
z"/>
<path fill="#BABEC4" opacity="1.000000" stroke="none" 
	d="
M104.412354,122.976257 
	C104.063423,122.494324 104.054268,122.096931 104.071548,121.403297 
	C106.039734,122.184357 107.981468,123.261658 109.958237,124.680984 
	C108.246216,124.368935 106.499168,123.714867 104.412354,122.976257 
z"/>
<path fill="#9FA1AD" opacity="1.000000" stroke="none" 
	d="
M84.975082,72.309845 
	C87.970856,69.922630 87.040253,73.401436 87.990738,74.686081 
	C87.053169,74.219933 86.097931,73.410759 84.975082,72.309845 
z"/>
<path fill="#515E71" opacity="1.000000" stroke="none" 
	d="
M117.988739,109.972214 
	C116.760078,105.852753 115.352592,101.775238 114.372375,97.597488 
	C113.818207,95.235588 113.966293,92.708923 113.434479,89.804245 
	C113.651627,88.921539 114.232376,88.491074 114.813126,88.060608 
	C115.888321,89.281273 117.685310,90.383331 117.908882,91.743927 
	C118.709625,96.616913 118.977455,101.577461 119.290024,107.092712 
	C118.751724,108.444412 118.370224,109.208313 117.988739,109.972214 
z"/>
<path fill="#525D71" opacity="1.000000" stroke="none" 
	d="
M93.436798,108.842979 
	C92.054947,107.522758 91.013084,106.282738 89.971214,105.042709 
	C90.088112,104.572510 90.205017,104.102310 90.321915,103.632111 
	C91.624664,103.832733 92.963074,103.906494 94.222656,104.260628 
	C96.776756,104.978699 99.288177,105.848549 102.233810,106.324226 
	C103.027756,105.834549 103.405083,105.676468 103.782417,105.518387 
	C104.532898,107.032303 105.283371,108.546211 105.935928,110.626717 
	C104.818855,112.525360 103.799706,113.857407 102.780563,115.189461 
	C99.779305,113.100700 96.778046,111.011940 93.436798,108.842979 
z"/>
<path fill="#D5D9E1" opacity="1.000000" stroke="none" 
	d="
M106.750305,82.103577 
	C108.920456,86.255447 111.779114,82.629768 114.563477,82.830902 
	C114.901787,83.675034 114.847916,84.554153 114.221756,85.559013 
	C111.017670,87.764351 108.385880,89.843948 105.513260,92.083511 
	C105.104820,92.793510 104.937202,93.343552 104.500603,94.069984 
	C103.754974,95.170845 103.278320,96.095322 102.801666,97.019791 
	C99.712044,92.954910 100.346504,88.810150 103.073486,84.299988 
	C104.075165,83.652122 104.539314,83.336296 105.003456,83.020462 
	C105.497971,82.748924 105.992485,82.477386 106.750305,82.103577 
z"/>
<path fill="#707784" opacity="1.000000" stroke="none" 
	d="
M103.047302,115.447281 
	C103.799706,113.857407 104.818855,112.525360 106.016968,110.962738 
	C106.195923,110.732170 106.572266,110.851387 106.749115,110.938972 
	C108.950752,114.452339 110.975540,117.878120 113.013504,121.657974 
	C111.338470,120.863861 109.667694,119.688896 107.956856,118.575485 
	C106.432281,117.583305 104.863388,116.659233 103.047302,115.447281 
z"/>
<path fill="#515B6E" opacity="1.000000" stroke="none" 
	d="
M105.754089,91.923546 
	C108.385880,89.843948 111.017670,87.764351 114.023285,85.823334 
	C114.537773,86.466209 114.678436,86.970520 114.816109,87.767715 
	C114.232376,88.491074 113.651627,88.921539 113.023880,89.647507 
	C112.976875,89.943001 113.003914,89.978668 112.608780,89.998154 
	C111.706139,90.828224 111.198631,91.638817 110.691132,92.449417 
	C110.691132,92.449417 110.610336,92.585587 110.103592,92.434006 
	C108.315933,92.162804 107.035004,92.043175 105.754089,91.923546 
z"/>
<path fill="#515E71" opacity="1.000000" stroke="none" 
	d="
M105.513260,92.083511 
	C107.035004,92.043175 108.315933,92.162804 110.046463,92.488823 
	C109.227295,93.780235 107.958511,94.865257 106.330437,95.733803 
	C105.570625,94.976082 105.170097,94.434837 104.769577,93.893593 
	C104.937202,93.343552 105.104820,92.793510 105.513260,92.083511 
z"/>
<path fill="#E5E6E8" opacity="1.000000" stroke="none" 
	d="
M104.993225,82.664413 
	C104.539314,83.336296 104.075165,83.652122 103.321007,84.003189 
	C102.823761,82.876312 102.616524,81.714195 102.409286,80.552086 
	C102.755630,80.365799 103.101974,80.179520 103.448318,79.993233 
	C103.959877,80.764946 104.471428,81.536659 104.993225,82.664413 
z"/>
<path fill="#515B6E" opacity="1.000000" stroke="none" 
	d="
M104.500603,94.069984 
	C105.170097,94.434837 105.570625,94.976082 106.022453,95.864212 
	C105.080750,96.657326 104.087738,97.103561 102.948196,97.284790 
	C103.278320,96.095322 103.754974,95.170845 104.500603,94.069984 
z"/>
<path fill="#E2E2E5" opacity="1.000000" stroke="none" 
	d="
M118.134521,110.251816 
	C118.370224,109.208313 118.751724,108.444412 119.403458,107.485733 
	C119.418571,108.461121 121.594795,110.676773 118.134521,110.251816 
z"/>
<path fill="#515E71" opacity="1.000000" stroke="none" 
	d="
M110.933830,92.303604 
	C111.198631,91.638817 111.706139,90.828224 112.586929,89.999115 
	C112.365654,90.706329 111.771095,91.432060 110.933830,92.303604 
z"/>
<path fill="#59606F" opacity="1.000000" stroke="none" 
	d="
M103.764091,105.173668 
	C103.405083,105.676468 103.027756,105.834549 102.438866,105.999763 
	C102.370331,105.459053 102.513359,104.911194 103.027435,104.291840 
	C103.398483,104.220345 103.587784,104.156853 103.587784,104.156853 
	C103.640450,104.380890 103.693108,104.604919 103.764091,105.173668 
z"/>
<path fill="#878D96" opacity="1.000000" stroke="none" 
	d="
M103.710449,103.798996 
	C103.587784,104.156853 103.398483,104.220345 103.307541,104.180603 
	C103.147430,103.077164 103.078255,102.013466 103.032074,100.552078 
	C103.314407,101.249969 103.573761,102.345558 103.710449,103.798996 
z"/>
<path fill="#E2E2E5" opacity="1.000000" stroke="none" 
	d="
M115.894699,82.600311 
	C115.921387,82.080528 116.138283,81.883408 116.650467,81.720825 
	C116.582031,82.060112 116.295082,82.449310 115.894699,82.600311 
z"/>
<path fill="#707784" opacity="1.000000" stroke="none" 
	d="
M115.891479,125.551239 
	C115.271736,125.457947 114.631378,125.027222 114.018631,124.272842 
	C114.654442,124.370735 115.262657,124.792267 115.891479,125.551239 
z"/>
<path fill="#707784" opacity="1.000000" stroke="none" 
	d="
M114.215897,123.646835 
	C113.870338,124.010628 113.689217,124.071068 113.221634,124.134293 
	C112.771736,123.618004 112.608299,123.098907 112.718575,122.274269 
	C113.454964,122.426971 113.917648,122.885223 114.215897,123.646835 
z"/>
<path fill="#EBEBEA" opacity="1.000000" stroke="none" 
	d="
M90.586952,84.253654 
	C91.219635,84.426842 91.538063,84.842827 91.866150,85.548447 
	C91.341438,85.390877 90.807076,84.943665 90.586952,84.253654 
z"/>
</svg>